<?xml version="1.0" encoding="utf-8"?>
<!-- Generator: Adobe Illustrator 23.0.3, SVG Export Plug-In . SVG Version: 6.00 Build 0)  -->
<svg version="1.1" id="Capa_1" xmlns="http://www.w3.org/2000/svg" xmlns:xlink="http://www.w3.org/1999/xlink" x="0px" y="0px"
	 viewBox="0 0 512 512" style="enable-background:new 0 0 512 512;" xml:space="preserve">
<style type="text/css">
	.st0{fill:none;stroke:#FE7A51;stroke-width:12;stroke-miterlimit:10;}
	.st1{fill:#FE7A51;}
</style>
<rect x="24" y="27" class="st0" width="463.5" height="463.5"/>
<g>
	<g>
		<path class="st1" d="M256.8,99L256.8,99c-0.1,0-0.1,0-0.2,0l0,0h-0.1C170,99.1,99,169.1,99,255.4c0,21.1,4.2,41.6,12.5,61.1
			c16.1,37.6,46.3,68,84,84c19.4,8.3,40,12.5,61.1,12.5l0,0c0,0,0,0,0.1,0c86.8,0,156.3-71.6,156.3-157.6
			C413,169.1,343.2,99.1,256.8,99z M226.1,120.7c-15.7,14.9-28.5,32.3-38.1,51.9h-42.7C164.9,146.8,193.3,128,226.1,120.7z
			 M133.5,190.9h46.6c-6.4,17.6-10.2,36.4-11.2,55.3h-51.2C119.1,226.4,124.6,207.6,133.5,190.9z M133.9,321
			c-9.1-17-14.8-36.1-16.1-56.4h51.1c0.9,19.3,4.7,38.4,11.3,56.4H133.9z M145.7,339.4H188c9.6,19.5,22.4,36.9,38.1,51.8
			C193.5,383.9,165.2,365.2,145.7,339.4z M187.3,264.6h60.2V321h-47.5C192.6,303.3,188.2,284.3,187.3,264.6z M247.4,385.5
			c-15.6-13-28.6-28.6-38.5-46.1h38.5V385.5L247.4,385.5z M247.4,246.2h-60.1c1.1-19.3,5.5-37.8,12.6-55.2h47.5V246.2z M247.4,172.6
			H209c9.9-17.4,22.8-33.1,38.5-46.1V172.6z M378.6,191c8.8,16.7,14.4,35.4,15.6,55.2h-49.9c-1-18.9-4.8-37.6-11.2-55.2H378.6z
			 M366.9,172.6h-41.7c-9.6-19.5-22.4-36.9-38.1-51.8C319.5,128.1,347.6,146.9,366.9,172.6z M265.8,126.5
			c15.6,13,28.6,28.6,38.5,46.1h-38.5V126.5z M265.8,191h47.5c7.2,17.4,11.5,35.9,12.6,55.2h-60.1V191z M326,264.5
			c-1,19.7-5.3,38.8-12.7,56.5h-47.5v-56.5H326z M265.8,385.5v-46.2h38.5C294.5,356.7,281.5,372.5,265.8,385.5z M287.2,391.2
			c15.6-14.8,28.4-32.4,38-51.9h41.3C347.3,364.9,319.4,383.8,287.2,391.2z M333.1,321c6.6-18,10.4-37.2,11.3-56.5h49.9
			c-1.3,20.3-7,39.6-16,56.5H333.1z"/>
	</g>
</g>
<rect x="422.1" y="406" class="st1" width="12" height="59.7"/>
<rect x="422.1" y="406" transform="matrix(6.123234e-17 -1 1 6.123234e-17 -7.7129 864.0129)" class="st1" width="12" height="59.7"/>
</svg>
